MoBL_ARMS_module2_4_allmuscles_wrist_states		
version=1		
nRows=132		
nColumns=3		
inDegrees=yes		
		
# SIMM Motion File Header:		
name MoBL_ARMS_module2_4_allmuscles_wrist_states		
datacolumns 3		
datarows 132		
otherdata 1		
range 1.617792988 1.911391539		
endheader		
time	deviation	flexion
1.617792988	-0.136537709	-0.456980346
1.621755836	-0.136554372	-0.467097044
1.623839895	-0.136554522	-0.472331042
1.625923954	-0.136549837	-0.477511481
1.628008013	-0.136541804	-0.482643208
1.63051497	-0.13652961	-0.488757794
1.632634656	-0.13651807	-0.493882186
1.634754342	-0.136505613	-0.49896779
1.636874028	-0.13649206	-0.504016562
1.638993714	-0.136476949	-0.509030263
1.641579773	-0.13645517	-0.515102331
1.643564966	-0.136434859	-0.51973235
1.645550158	-0.136410765	-0.524336726
1.647535351	-0.136383146	-0.528915117
1.650473386	-0.136339094	-0.535636872
1.652437019	-0.136310695	-0.540087015
1.654400653	-0.136285268	-0.544498958
1.657011888	-0.136257253	-0.550304067
1.659257979	-0.136237659	-0.555241658
1.66150407	-0.136219957	-0.560131164
1.663750161	-0.136201521	-0.564977347
1.665996251	-0.136180463	-0.569785084
1.667983261	-0.136159177	-0.574009723
1.66997027	-0.136135861	-0.578210391
1.672397987	-0.136106426	-0.583313259
1.674825704	-0.136078678	-0.588386227
1.676793715	-0.136059249	-0.592477812
1.678761726	-0.136043552	-0.596551312
1.681255599	-0.136029372	-0.601687683
1.683749473	-0.136020758	-0.606795786
1.685646032	-0.136016767	-0.610661543
1.687542591	-0.136013846	-0.61451082
1.69014495	-0.136010698	-0.619764671
1.692468797	-0.136008546	-0.624426973
1.694792644	-0.13600752	-0.629058899
1.696778575	-0.13600819	-0.632990864
1.698764506	-0.136010831	-0.636896637
1.701179647	-0.13601703	-0.641609216
1.703594788	-0.136026316	-0.64627915
1.705586412	-0.136035836	-0.650097267
1.707578035	-0.136046557	-0.653885124
1.710011759	-0.136060797	-0.658472038
1.712445482	-0.136075936	-0.663012409
1.714393212	-0.1360886	-0.666612209
1.716340942	-0.136101728	-0.670181686
1.718829625	-0.136119087	-0.674698463
1.721318308	-0.136136828	-0.679166276
1.723230521	-0.136150411	-0.68256658
1.725142734	-0.136163732	-0.685939169
1.727617711	-0.136180444	-0.690263915
1.730014784	-0.136195968	-0.69441014
1.732411857	-0.13621094	-0.698515606
1.73432315	-0.136222588	-0.701760434
1.736234444	-0.136234018	-0.70498033
1.738806606	-0.136249015	-0.709275005
1.741378769	-0.136263452	-0.713526305
1.743262769	-0.13627357	-0.716613107
1.745146769	-0.136283199	-0.719677228
1.747747616	-0.136295484	-0.723870166
1.750348464	-0.136306522	-0.728020037
1.752236284	-0.13631384	-0.731005023
1.754124104	-0.136320587	-0.733967093
1.756715078	-0.136329045	-0.737994838
1.759306052	-0.136336791	-0.741978368
1.761198098	-0.136342143	-0.744858679
1.763090144	-0.136347317	-0.747714125
1.765677706	-0.136354126	-0.75157789
1.768265269	-0.136361403	-0.755391848
1.770074221	-0.136366765	-0.758027695
1.770906034	-0.136369243	-0.759231199
1.771737848	-0.13637137	-0.760429619
1.773215213	-0.136373866	-0.762545891
1.779201386	-0.13637303	-0.770953399
1.783002656	-0.136371475	-0.776143555
1.784557196	-0.136371939	-0.778231184
1.786626026	-0.136373655	-0.780977446
1.789413317	-0.136377493	-0.784618989
1.792185767	-0.136381983	-0.78817456
1.79413939	-0.136384874	-0.790640341
1.796093012	-0.136387093	-0.793073639
1.798669694	-0.136388536	-0.796233905
1.800952494	-0.136388239	-0.798987662
1.803235294	-0.13638658	-0.801698635
1.805518094	-0.136383831	-0.804367388
1.807444308	-0.136381	-0.806586783
1.809370522	-0.136378133	-0.808776656
1.811296736	-0.136375687	-0.810937109
1.814382916	-0.136372881	-0.814338038
1.816357363	-0.13637163	-0.816475372
1.818331809	-0.136370494	-0.818583196
1.820978432	-0.136368622	-0.821363052
1.823183195	-0.136366421	-0.823639592
1.825387958	-0.136363689	-0.825880008
1.827592722	-0.136360666	-0.828084873
1.829797485	-0.136357795	-0.830254926
1.832002248	-0.136355623	-0.832390727
1.834207012	-0.136354623	-0.834492899
1.836411775	-0.136355065	-0.836562265
1.838616538	-0.136356976	-0.838599864
1.840821302	-0.136360185	-0.840606873
1.843026065	-0.136364396	-0.842584503
1.845230828	-0.136369244	-0.844533867
1.847435592	-0.136374343	-0.84645594
1.849640355	-0.136379298	-0.848351479
1.851845118	-0.136383742	-0.850220975
1.854049882	-0.136387352	-0.852064654
1.85602976	-0.136389699	-0.853698234
1.858009637	-0.136391133	-0.855310737
1.860397802	-0.136391715	-0.857227211
1.862785967	-0.136391204	-0.859111672
1.864840699	-0.136389868	-0.860706564
1.866895432	-0.136387368	-0.86227598
1.868950165	-0.136383026	-0.863818622
1.871578965	-0.136373239	-0.865750363
1.873626019	-0.136361167	-0.86721905
1.875673073	-0.136344536	-0.868653644
1.877720127	-0.136323334	-0.870051271
1.880443149	-0.136288994	-0.871848163
1.882443274	-0.136260458	-0.873119394
1.8844434	-0.136230263	-0.874346884
1.886947886	-0.136191389	-0.875819338
1.889198417	-0.136156054	-0.877078928
1.890488639	-0.136135564	-0.877773173
1.892252114	-0.136107113	-0.878688403
1.895130399	-0.136058203	-0.880096735
1.898008684	-0.136003297	-0.881396545
1.900537264	-0.135947986	-0.882446582
1.902588675	-0.13589791	-0.88323378
1.904640085	-0.135843606	-0.883961555
1.906691496	-0.135785735	-0.884628489
1.909372148	-0.135705104	-0.885405347
1.911391539	-0.135639539	-0.885916546
